HIERARCHY
ROOT Hips
{
	OFFSET 0.00000 0.00000 0.00000
	CHANNELS 6 Xposition Yposition Zposition Zrotation Yrotation Xrotation 
	JOINT LHipJoint
	{
		OFFSET 0 0 0
		CHANNELS 3 Zrotation Yrotation Xrotation
		JOINT LeftUpLeg
		{
			OFFSET 1.65412 -1.54119 0.76744
			CHANNELS 3 Zrotation Yrotation Xrotation
			JOINT LeftLeg
			{
				OFFSET 2.19550 -6.03209 0.00000
				CHANNELS 3 Zrotation Yrotation Xrotation
				JOINT LeftFoot
				{
					OFFSET 2.38814 -6.56138 0.00000
					CHANNELS 3 Zrotation Yrotation Xrotation
					JOINT LeftToeBase
					{
						OFFSET 0.17337 -0.47632 1.75875
						CHANNELS 3 Zrotation Yrotation Xrotation
						End Site
						{
							OFFSET 0.00000 -0.00000 0.92050
						}
					}
				}
			}
		}
	}
	JOINT RHipJoint
	{
		OFFSET 0 0 0
		CHANNELS 3 Zrotation Yrotation Xrotation
		JOINT RightUpLeg
		{
			OFFSET -1.40291 -1.54119 0.76744
			CHANNELS 3 Zrotation Yrotation Xrotation
			JOINT RightLeg
			{
				OFFSET -2.22156 -6.10370 0.00000
				CHANNELS 3 Zrotation Yrotation Xrotation
				JOINT RightFoot
				{
					OFFSET -2.46840 -6.78188 0.00000
					CHANNELS 3 Zrotation Yrotation Xrotation
					JOINT RightToeBase
					{
						OFFSET -0.15659 -0.43024 1.84117
						CHANNELS 3 Zrotation Yrotation Xrotation
						End Site
						{
							OFFSET -0.00000 -0.00000 0.95587
						}
					}
				}
			}
		}
	}
	JOINT LowerBack
	{
		OFFSET 0 0 0
		CHANNELS 3 Zrotation Yrotation Xrotation
		JOINT Spine
		{
			OFFSET -0.01936 1.82120 -0.32061
			CHANNELS 3 Zrotation Yrotation Xrotation
			JOINT Spine1
			{
				OFFSET -0.00532 1.85767 -0.00071
				CHANNELS 3 Zrotation Yrotation Xrotation
				JOINT Neck
				{
					OFFSET 0 0 0
					CHANNELS 3 Zrotation Yrotation Xrotation
					JOINT Neck1
					{
						OFFSET -0.10687 1.58194 0.10810
						CHANNELS 3 Zrotation Yrotation Xrotation
						JOINT Head
						{
							OFFSET 0.15346 1.57382 -0.25612
							CHANNELS 3 Zrotation Yrotation Xrotation
							End Site
							{
								OFFSET 0.05334 1.61251 -0.10513
							}
						}
					}
				}
				JOINT LeftShoulder
				{
					OFFSET 0 0 0
					CHANNELS 3 Zrotation Yrotation Xrotation
					JOINT LeftArm
					{
						OFFSET 2.85758 0.89498 -0.01485
						CHANNELS 3 Zrotation Yrotation Xrotation
						JOINT LeftForeArm
						{
							OFFSET 4.79185 -0.00000 -0.00000
							CHANNELS 3 Zrotation Yrotation Xrotation
							JOINT LeftHand
							{
								OFFSET 2.65553 -0.00000 0.00000
								CHANNELS 3 Zrotation Yrotation Xrotation
								JOINT LeftFingerBase
								{
									OFFSET 0 0 0
									CHANNELS 3 Zrotation Yrotation Xrotation
									JOINT LeftHandIndex1
									{
										OFFSET 0.74390 -0.00000 0.00000
										CHANNELS 3 Zrotation Yrotation Xrotation
										End Site
										{
											OFFSET 0.59975 -0.00000 0.00000
										}
									}
								}
								JOINT LThumb
								{
									OFFSET 0 0 0
									CHANNELS 3 Zrotation Yrotation Xrotation
									End Site
									{
										OFFSET 0.60891 -0.00000 0.60891
									}
								}
							}
						}
					}
				}
				JOINT RightShoulder
				{
					OFFSET 0 0 0
					CHANNELS 3 Zrotation Yrotation Xrotation
					JOINT RightArm
					{
						OFFSET -2.93906 0.88031 0.02490
						CHANNELS 3 Zrotation Yrotation Xrotation
						JOINT RightForeArm
						{
							OFFSET -4.77254 -0.00000 -0.00000
							CHANNELS 3 Zrotation Yrotation Xrotation
							JOINT RightHand
							{
								OFFSET -2.75995 -0.00000 -0.00000
								CHANNELS 3 Zrotation Yrotation Xrotation
								JOINT RightFingerBase
								{
									OFFSET 0 0 0
									CHANNELS 3 Zrotation Yrotation Xrotation
									JOINT RightHandIndex1
									{
										OFFSET -0.70162 -0.00000 0.00000
										CHANNELS 3 Zrotation Yrotation Xrotation
										End Site
										{
											OFFSET -0.56566 -0.00000 0.00000
										}
									}
								}
								JOINT RThumb
								{
									OFFSET 0 0 0
									CHANNELS 3 Zrotation Yrotation Xrotation
									End Site
									{
										OFFSET -0.57430 -0.00000 0.57430
									}
								}
							}
						}
					}
				}
			}
		}
	}
}
MOTION
Frames: 14
Frame Time: .0083333
0.5248 16.2491 0.336 0 0 0 0 0 0 -21 0 0 0 0 0 0 0 0 0 0 0 0 0 0 21 0 0 0 0 0 0 0 0 0 0 0 0 0 0 0 0 0 0 0 0 0 0 -16 0 0 21 0 0 11 0 0 0 -8 0 0 0 0 0 0 0 0 0 0 0 0 0 0 0 0 0 0 0 0 8 0 0 0 0 0 0 0 0 0 0 0 0 0 0 0 0 0
0.5248 16.2491 0.3360 -1.7941 2.6214 6.5807 0.0000 0.0000 0.0000 -16.0888 -15.5919 2.1405 0.1231 2.2618 6.2296 -0.0746 9.6312 -12.3621 0.1971 -2.8587 -7.8857 0.0000 0.0000 0.0000 17.3141 8.0228 1.5042 -0.0667 -1.6668 4.5857 0.2490 -11.2351 -11.5585 -0.0367 1.2363 -3.3993 -3.5363 0.5023 10.8820 -1.3991 0.0996 -1.0111 0.4999 0.1577 -7.1945 -14.7841 -10.1764 -6.9904 11.6678 -13.9372 15.2008 4.8205 -6.7195 7.6938 -0.0000 -0.0000 0.0000 -82.2460 5.7851 22.3980 19.5609 -30.1096 -5.3093 -0.0000 0.0000 -6.8453 11.0137 14.3264 2.7572 -7.1250 0.0000 -0.0000 -15.0819 44.0301 0.3698 -0.0000 -0.0000 0.0000 78.0699 -13.3529 32.9868 -24.8188 36.0183 -8.1831 0.0000 -0.0000 -1.0556 -18.1084 14.9078 -4.8089 7.1250 -0.0000 -0.0000 6.3931 -14.4009 4.6317
0.5303 16.2454 0.3416 -1.8076 2.6138 6.4427 0.0000 0.0000 0.0000 -16.1374 -15.5532 2.2595 0.1273 2.3002 6.3360 -0.0685 9.6003 -12.4330 0.1925 -2.8256 -7.7935 0.0000 0.0000 0.0000 17.3307 7.9516 1.7439 -0.0622 -1.6097 4.4282 0.2650 -11.3564 -11.4405 -0.0528 1.4832 -4.0795 -3.4906 0.4893 10.7945 -1.3670 0.0955 -0.9926 0.5095 0.1535 -7.1244 -14.7612 -10.1462 -7.1206 11.5145 -13.8840 15.5481 4.7668 -6.6972 7.8098 0.0000 0.0000 0.0000 -82.2405 5.7352 22.9246 20.0727 -30.7298 -5.5684 -0.0000 0.0000 -6.9291 10.8878 14.0783 2.6788 -7.1250 0.0000 -0.0000 -15.1191 43.7735 0.4690 0.0000 0.0000 0.0000 78.0499 -13.2802 32.9257 -24.7978 35.9966 -8.1708 0.0000 -0.0000 -0.9678 -18.0527 14.6977 -4.7274 7.1250 -0.0000 -0.0000 6.4250 -14.6243 4.6243
0.5350 16.2459 0.3473 -1.8539 2.5957 6.3082 0.0000 0.0000 0.0000 -16.1443 -15.4558 2.4933 0.1221 2.2529 6.2051 -0.0734 9.6490 -12.4154 0.1904 -2.8103 -7.7511 0.0000 0.0000 0.0000 17.3971 7.9585 1.8126 -0.0673 -1.6731 4.6031 0.2592 -11.3222 -11.5032 -0.0497 1.4391 -3.9579 -3.4287 0.4664 10.7180 -1.3226 0.0802 -0.9872 0.5246 0.1439 -7.0742 -14.7334 -10.0994 -7.2711 11.3463 -13.8045 15.9207 4.7102 -6.6628 7.9332 0.0000 -0.0000 0.0000 -82.2479 5.6414 23.7161 20.4796 -31.2158 -5.7779 -0.0000 0.0000 -7.3213 11.4629 14.0301 2.8144 -7.1250 0.0000 -0.0000 -14.5959 43.7888 0.4463 0.0000 -0.0000 0.0000 78.0111 -13.1940 32.9273 -24.7768 35.9749 -8.1584 0.0000 -0.0000 -0.8387 -18.0919 14.4486 -4.6601 7.1250 -0.0000 -0.0000 6.3916 -14.8789 4.5651
0.5399 16.2466 0.3508 -1.8479 2.5725 6.1855 0.0000 0.0000 0.0000 -16.2111 -15.3736 2.6879 0.1189 2.2230 6.1225 -0.0717 9.6594 -12.4635 0.1897 -2.8052 -7.7370 0.0000 0.0000 0.0000 17.3966 7.9487 1.9213 -0.0699 -1.7060 4.6937 0.2510 -11.2627 -11.5704 -0.0420 1.3230 -3.6381 -3.3869 0.4658 10.6941 -1.3183 0.0852 -1.0222 0.5046 0.1455 -7.0979 -14.7129 -10.0646 -7.3568 11.2416 -13.7629 16.3088 4.6740 -6.6451 8.0615 -0.0000 0.0000 0.0000 -82.2381 5.5545 24.5020 20.9363 -31.7539 -6.0164 -0.0000 0.0000 -7.9815 12.0412 14.3478 3.0258 -7.1250 0.0000 -0.0000 -14.1749 44.1649 0.2984 -0.0000 0.0000 0.0000 78.0196 -13.1336 32.8776 -24.7488 35.9462 -8.1420 0.0000 -0.0000 -0.8038 -17.9907 14.3000 -4.5859 7.1250 -0.0000 -0.0000 6.4569 -15.0426 4.5895
0.5448 16.2447 0.3538 -1.7994 2.5482 6.0785 0.0000 0.0000 0.0000 -16.3187 -15.3037 2.8551 0.1154 2.1905 6.0324 -0.0675 9.6341 -12.5059 0.1964 -2.8541 -7.8729 0.0000 0.0000 0.0000 17.3457 7.9413 2.0111 -0.0726 -1.7379 4.7820 0.2425 -11.2166 -11.6721 -0.0391 1.2770 -3.5114 -3.3802 0.4788 10.6730 -1.3303 0.1019 -1.0735 0.4851 0.1541 -7.1412 -14.7464 -10.0472 -7.3960 11.2037 -13.7556 16.6787 4.6660 -6.6437 8.1898 -0.0000 -0.0000 0.0000 -82.2155 5.4418 25.0533 21.3334 -32.2155 -6.2267 -0.0000 0.0000 -8.4773 12.2151 14.4532 3.0928 -7.1250 0.0000 -0.0000 -14.0508 44.2884 0.2519 -0.0000 -0.0000 0.0000 78.0681 -13.1315 32.7505 -24.7247 35.9213 -8.1279 0.0000 -0.0000 -0.7484 -17.9022 14.2870 -4.5579 7.1250 -0.0000 -0.0000 6.5168 -15.0644 4.6296
0.5502 16.2432 0.3580 -1.7939 2.5186 5.9468 0.0000 0.0000 0.0000 -16.3868 -15.2506 2.9524 0.1191 2.2247 6.1270 -0.0610 9.5821 -12.5500 0.2004 -2.8823 -7.9514 0.0000 0.0000 0.0000 17.3259 7.8982 2.2294 -0.0697 -1.7030 4.6855 0.2316 -11.1414 -11.7649 -0.0244 1.0075 -2.7695 -3.3207 0.5143 10.5991 -1.3474 0.1595 -1.0638 0.4245 0.1788 -7.0903 -14.6758 -10.0683 -7.4892 11.1144 -13.7967 17.0215 4.6153 -6.6609 8.3145 0.0000 0.0000 0.0000 -82.1485 5.2861 25.4784 21.7427 -32.6850 -6.4463 -0.0000 0.0000 -8.7452 11.9762 14.2344 2.9858 -7.1250 0.0000 -0.0000 -14.1998 44.0461 0.3415 0.0000 0.0000 0.0000 78.2000 -13.0934 32.4901 -24.6661 35.8607 -8.0935 0.0000 -0.0000 -0.6064 -18.0154 14.3138 -4.5969 7.1250 -0.0000 -0.0000 6.4403 -15.0259 4.5799
0.5555 16.2419 0.3624 -1.8388 2.5054 5.8173 0.0000 0.0000 0.0000 -16.3943 -15.2981 2.8068 0.1426 2.4333 6.7047 -0.0347 9.4295 -12.8132 0.1925 -2.8255 -7.7934 0.0000 0.0000 0.0000 17.3342 7.7349 2.7427 -0.0509 -1.4562 4.0049 0.2455 -11.1988 -11.5653 -0.0123 0.7167 -1.9695 -3.2361 0.5102 10.5084 -1.3159 0.1717 -1.0539 0.4090 0.1814 -7.0279 -14.6133 -10.0503 -7.5927 10.9613 -13.7678 17.3722 4.5536 -6.6502 8.4303 -0.0000 -0.0000 0.0000 -82.1834 5.1837 25.6932 22.2482 -33.2564 -6.7215 -0.0000 0.0000 -9.0445 11.5154 14.2647 2.8738 -7.1250 0.0000 -0.0000 -14.6182 44.0249 0.3599 -0.0000 -0.0000 0.0000 78.2425 -13.0344 32.3552 -24.6092 35.8018 -8.0602 0.0000 -0.0000 -0.4636 -18.0887 14.2932 -4.6104 7.1250 -0.0000 -0.0000 6.3899 -15.0404 4.5416
0.5604 16.2329 0.3662 -1.7986 2.4979 5.7172 0.0000 0.0000 0.0000 -16.4862 -15.2914 2.8442 0.1500 2.4960 6.8786 -0.0252 9.3678 -12.8972 0.1908 -2.8132 -7.7591 0.0000 0.0000 0.0000 17.3206 7.6361 3.0392 -0.0455 -1.3764 3.7851 0.2764 -11.4335 -11.3340 -0.0414 1.3140 -3.6132 -3.2405 0.4898 10.3903 -1.3211 0.1485 -1.0707 0.4104 0.1697 -6.9777 -14.5434 -10.0293 -7.6837 10.8303 -13.7480 17.7878 4.4978 -6.6421 8.5685 -0.0000 -0.0000 0.0000 -82.1880 5.0779 25.8834 22.7041 -33.7637 -6.9732 -0.0000 0.0000 -9.4474 11.0052 13.8897 2.6729 -7.1250 0.0000 -0.0000 -14.9598 43.6018 0.5288 -0.0000 -0.0000 0.0000 78.2712 -12.9767 32.3416 -24.5370 35.7270 -8.0180 0.0000 -0.0000 -0.4855 -18.0963 14.2240 -4.5907 7.1250 -0.0000 -0.0000 6.3830 -15.1115 4.5269
0.5661 16.2107 0.3690 -1.6193 2.4252 5.6004 0.0000 0.0000 0.0000 -16.7489 -15.2222 2.9117 0.1569 2.5524 7.0351 -0.0144 9.2976 -12.9902 0.1892 -2.8017 -7.7270 0.0000 0.0000 0.0000 17.1929 7.5280 3.5161 -0.0411 -1.3088 3.5988 0.3171 -11.7711 -11.0864 -0.1500 2.4955 -6.8772 -3.4261 0.4902 10.2520 -1.3474 0.1310 -1.0480 0.4910 0.1662 -6.8752 -14.5307 -10.0035 -7.7871 10.7699 -13.7201 18.1405 4.4754 -6.6281 8.6971 0.0000 0.0000 0.0000 -82.2131 4.8830 26.0842 23.0478 -34.1410 -7.1651 -0.0000 0.0000 -9.7217 10.7323 13.1475 2.4686 -7.1250 0.0000 -0.0000 -14.9862 42.8466 0.8161 0.0000 0.0000 0.0000 78.2776 -12.9068 32.3628 -24.5320 35.7218 -8.0151 0.0000 -0.0000 -0.5656 -18.2017 14.2600 -4.6305 7.1250 -0.0000 -0.0000 6.3120 -15.0642 4.4823
0.5733 16.2233 0.3746 -1.6004 2.3281 5.4667 0.0000 0.0000 0.0000 -16.8446 -15.1157 2.9632 0.1656 2.6215 7.2266 -0.0094 9.2720 -13.0446 0.2008 -2.8852 -7.9592 0.0000 0.0000 0.0000 17.0729 7.5933 3.6284 -0.0354 -1.2148 3.3399 0.2973 -11.5830 -11.1530 -0.0711 1.7208 -4.7346 -3.4388 0.5080 10.1889 -1.3234 0.1575 -1.0524 0.5195 0.1798 -6.8449 -14.4917 -9.9796 -7.9316 10.6160 -13.6759 18.5290 4.4174 -6.6107 8.8348 -0.0000 0.0000 0.0000 -82.2500 4.7016 26.3977 23.4002 -34.5235 -7.3638 -0.0000 0.0000 -9.8705 10.6448 13.0108 2.4230 -7.1250 0.0000 -0.0000 -15.0242 42.7040 0.8725 -0.0000 0.0000 0.0000 78.2820 -12.9282 32.3124 -24.5738 35.7651 -8.0395 0.0000 -0.0000 -0.5191 -18.3538 14.3618 -4.7043 7.1250 -0.0000 -0.0000 6.2110 -14.9439 4.4258
0.5793 16.2226 0.3788 -1.6409 2.2551 5.2796 0.0000 0.0000 0.0000 -16.8819 -14.9764 3.1634 0.1663 2.6275 7.2433 -0.0087 9.2628 -13.0444 0.2025 -2.8978 -7.9944 0.0000 0.0000 0.0000 17.1134 7.6326 3.7719 -0.0366 -1.2347 3.3948 0.2987 -11.5965 -11.1483 -0.0675 1.6758 -4.6106 -3.3742 0.5243 10.1894 -1.2813 0.1896 -1.0681 0.5222 0.1943 -6.8627 -14.5299 -9.9523 -7.9287 10.5248 -13.6402 18.8341 4.3983 -6.6034 8.9296 0.0000 0.0000 0.0000 -82.2803 4.5921 26.8098 23.8157 -34.9688 -7.6007 -0.0000 0.0000 -10.1317 10.7000 13.5135 2.5281 -7.1250 0.0000 -0.0000 -15.1193 43.2012 0.6880 0.0000 0.0000 0.0000 78.2947 -12.9974 32.2527 -24.5817 35.7734 -8.0441 0.0000 -0.0000 -0.5428 -18.4415 14.5130 -4.7768 7.1250 -0.0000 -0.0000 6.1556 -14.7782 4.4078
0.5845 16.2177 0.3833 -1.6930 2.2002 5.0582 0.0000 0.0000 0.0000 -16.9057 -14.7599 3.6249 0.1478 2.4773 6.8268 -0.0217 9.3224 -12.8940 0.1870 -2.7850 -7.6809 0.0000 0.0000 0.0000 17.2317 7.7410 3.6837 -0.0533 -1.4903 4.0989 0.2789 -11.5145 -11.4488 -0.0865 1.8971 -5.2215 -3.3149 0.5236 10.1661 -1.2313 0.2013 -1.0425 0.5400 0.1980 -6.8223 -14.5860 -9.9239 -7.8549 10.4917 -13.6135 19.0417 4.4037 -6.5998 8.9853 0.0000 0.0000 0.0000 -82.3465 4.5004 27.0359 24.1865 -35.3609 -7.8142 -0.0000 0.0000 -10.2168 10.7058 13.6270 2.5504 -7.1250 0.0000 -0.0000 -15.1470 43.3129 0.6465 0.0000 0.0000 0.0000 78.3140 -12.9763 32.2665 -24.5462 35.7365 -8.0234 0.0000 -0.0000 -0.6863 -18.5037 14.5325 -4.8003 7.1250 -0.0000 -0.0000 6.1139 -14.7519 4.3810
0.5901 16.2143 0.3880 -1.6611 2.1353 4.8763 0.0000 0.0000 0.0000 -17.0089 -14.6065 3.9015 0.1417 2.4257 6.6837 -0.0241 9.3141 -12.8386 0.1838 -2.7616 -7.6158 0.0000 0.0000 0.0000 17.2090 7.7825 3.7777 -0.0603 -1.5839 4.3571 0.2650 -11.4451 -11.6285 -0.0820 1.8471 -5.0834 -3.3429 0.5165 10.1040 -1.2200 0.1926 -1.0210 0.5697 0.1941 -6.7640 -14.5511 -9.9025 -7.9252 10.4258 -13.5934 19.3458 4.3765 -6.5905 9.0921 0.0000 -0.0000 0.0000 -82.3878 4.4255 27.0779 24.5036 -35.6923 -7.9985 -0.0000 0.0000 -9.9926 10.5356 13.7917 2.5386 -7.1250 0.0000 -0.0000 -15.3452 43.4557 0.5999 0.0000 -0.0000 0.0000 78.3417 -12.9285 32.2927 -24.5365 35.7265 -8.0177 0.0000 -0.0000 -0.7522 -18.4841 14.3386 -4.7326 7.1250 -0.0000 -0.0000 6.1216 -14.9555 4.3598
